<?xml version="1.0" encoding="UTF-8"?>
<svg id="Layer_1" data-name="Layer 1" xmlns="http://www.w3.org/2000/svg" viewBox="0 0 1909.42 2042.89">
  <defs>
    <style>
      .cls-1 {
        fill: #231f20;
        stroke-width: 0px;
      }
    </style>
  </defs>
  <g>
    <g>
      <path class="cls-1" d="M849.61,347.74c3.39,1.45,7.27,3.89,11.64,7.27,4.36,3.4,8.73,7.64,13.09,12.73,4.36,5.09,8.73,10.55,13.09,16.37,50.43-11.64,101.59-22.3,153.49-32.01,51.89-9.7,103.77-18.19,155.67-25.46,51.89-7.27,103.53-12.73,154.94-16.37,51.4-3.64,102.08-4.97,152.03-4,4.36,1.45,11.02,7.89,20,19.28,8.97,11.4,17.57,23.89,25.82,37.46,8.24,13.58,14.55,25.95,18.91,37.1,4.36,11.16,4.36,17.22,0,18.19-65.47-1.93-129.37-1.21-191.68,2.18-62.32,3.4-123.3,8.73-182.95,16-59.65,7.27-118.33,16.37-176.04,27.28-57.72,10.91-114.46,23.16-170.22,36.73-39.77,50.44-79.18,102.69-118.21,156.76-39.04,54.08-75.17,109.6-108.39,166.58-33.22,56.99-62.44,115.66-87.65,176.04-25.22,60.38-43.64,122.08-55.28,185.13-1.45,3.39-4.98,4.11-10.55,2.18-5.58-1.94-12.13-5.34-19.64-10.18-7.52-4.85-15.53-10.67-24.01-17.46-8.49-6.8-16.25-13.82-23.28-21.1-7.04-7.27-12.73-14.07-17.09-20.37-4.36-6.31-6.07-11.16-5.09-14.55,12.12-50.43,28.73-99.89,49.83-148.39,21.1-48.49,45.21-96.02,72.38-142.57,27.15-46.55,56.61-92.26,88.38-137.12,31.76-44.85,64.38-88.86,97.84-132.03-63.54,18.44-126.09,37.59-187.67,57.47-61.59,19.89-123.66,40.26-186.22,61.1-3.89,2.43-11.04,2.07-21.46-1.09-10.43-3.15-22.31-8-35.64-14.55-13.34-6.55-26.91-14.3-40.74-23.28-13.82-8.97-25.95-18.19-36.37-27.64-10.43-9.46-18.07-18.55-22.91-27.28-4.84-8.73-4.84-16.24,0-22.55,35.39-1.46,76.38-6.66,122.93-15.64,46.55-8.97,97.22-20.12,152.03-33.46,54.8-13.33,112.99-28.01,174.58-44.01,61.58-16,125.36-31.76,191.31-47.28l45.1-57.47c1.93-1.46,4.6-1.46,8,0Z"/>
      <path class="cls-1" d="M743,1149.69c-3.62,1.55-4.78-.25-3.48-5.42,1.28-5.15,3.99-11.73,8.12-19.73,4.12-7.99,9.29-17.14,15.48-27.47,6.19-10.31,12.5-19.98,18.96-29.02,6.44-9.02,12.63-16.76,18.57-23.21,5.92-6.44,10.7-10.45,14.32-11.99l59.58-13.15c29.4-50.03,60.09-100.07,92.08-150.12,31.98-50.03,65.25-100.85,99.82-152.44-38.69,17.02-75.32,38.05-109.88,63.06-34.57,25.03-66.16,51.98-94.79,80.86-28.63,28.9-54.17,58.81-76.61,89.76-22.44,30.95-41.01,60.88-55.71,89.76-14.7,28.9-25.41,55.71-32.11,80.47-6.71,24.76-8.78,45.15-6.19,61.13,1.03,6.71-.91,10.45-5.8,11.22-4.91.77-11.49-.39-19.73-3.48-8.26-3.09-17.41-7.61-27.47-13.54-10.06-5.92-19.48-12.38-28.24-19.35-8.78-6.96-16.52-13.79-23.21-20.51-6.71-6.7-10.58-12.63-11.61-17.8-6.71-17.53-6.19-40.1,1.55-67.71,7.74-27.59,22.05-57.51,42.95-89.76,20.89-32.23,47.84-65.51,80.86-99.82,33.01-34.3,71.31-67.57,114.91-99.82,43.59-32.23,91.95-61.77,145.09-88.6,53.13-26.82,110.13-49,171.01-66.55,3.1-1.55,5.15.27,6.19,5.42l2.32-3.87c2.06-3.1,5.8-2.71,11.22,1.16,5.42,3.87,11.09,9.94,17.02,18.18,5.93,8.26,11.61,18.18,17.02,29.79,5.42,11.61,9.28,23.87,11.61,36.76,2.32,12.9,2.44,25.8.39,38.69-2.07,12.9-7.23,24.51-15.48,34.82-35.09,42.3-66.16,82.02-93.24,119.16-27.08,37.14-51.46,72.74-73.12,106.78l191.9-30.95c26.82-40.74,56.1-81.64,87.83-122.65,31.73-41.01,65.39-80.21,100.98-117.62,35.59-37.4,72.74-72.6,111.43-105.62,38.69-33.01,78.93-62.16,120.71-87.44,16.5-7.74,33.14-11.22,49.91-10.45,16.76.77,31.46,3.48,44.11,8.12,12.63,4.64,22.17,10.33,28.63,17.02,6.44,6.71,8.12,11.87,5.03,15.48-28.9,11.87-59.2,28.9-90.92,51.07-31.73,22.19-63.97,48.63-96.72,79.31-32.77,30.7-65.65,64.88-98.66,102.53-33.02,37.66-65,77.9-95.95,120.71-30.95,42.82-60.74,87.57-89.37,134.25-28.63,46.69-55.07,94.15-79.31,142.38-24.25,48.24-45.65,96.86-64.22,145.86-18.57,49-33.54,97.23-44.88,144.7-1.04,3.6-4,4.38-8.9,2.32-4.91-2.07-10.58-5.68-17.02-10.83-6.46-5.16-13.03-11.61-19.73-19.35-6.71-7.74-12.9-15.48-18.57-23.21-5.68-7.74-10.33-14.97-13.93-21.67-3.61-6.71-4.91-11.87-3.87-15.48.51-15.48,3.87-34.7,10.06-57.65,6.19-22.95,14.7-48.36,25.54-76.22,10.83-27.86,24.11-57.77,39.85-89.76,15.73-31.98,33.39-65.25,53-99.82-29.4,4.14-59.71,8.51-90.92,13.15-31.22,4.64-63.06,9.81-95.56,15.48-20.64,40.24-38.57,79.97-53.78,119.16-15.22,39.21-29.54,80.47-42.95,123.81-4.64,13.93-11.74,18.44-21.28,13.54-9.55-4.91-19.34-14.84-29.4-29.79-10.06-14.96-18.96-32.75-26.7-53.39-7.74-20.63-11.61-39.97-11.61-58.03l43.33-84.34c-11.87,3.61-23.6,7.1-35.21,10.45-11.61,3.36-23.35,7.1-35.21,11.22Z"/>
    </g>
    <path class="cls-1" d="M1909.42,2042.89H0V0h1909.42v2042.89ZM82.53,1948.68h1744.36V94.21H82.53v1854.47Z"/>
  </g>
  <g>
    <path class="cls-1" d="M314.53,1634.36h95.96c78.13,0,130.47,48.17,130.47,133.13s-53.1,132.37-131.61,132.37h-94.82v-265.5ZM364.98,1674.94v185.09h43.24c50.82,0,81.16-30.72,81.16-92.16s-30.34-92.92-81.16-92.92h-43.24Z"/>
    <path class="cls-1" d="M567.12,1634.36h193.81v40.2h-143.37v69.03h106.58v39.45h-106.58v77.37h143.37v39.44h-193.81v-265.5Z"/>
    <path class="cls-1" d="M776.09,1808.07h50.06c5.31,39.06,26.55,57.27,65.23,57.27s55.38-14.41,55.38-34.13c0-28.07-35.28-36.79-73.58-47.03-45.14-12.14-94.44-26.93-94.44-79.27,0-44.76,38.31-75.1,99.37-75.1,66.37,0,108.86,33.38,115.68,93.3h-47.79c-5.69-35.27-29.2-54.24-66.37-54.24-34.14,0-50.45,13.65-50.45,31.86,0,25.79,32.24,34.51,68.65,44.76,46.27,12.52,98.99,27.31,98.99,81.54,0,46.27-39.07,77.37-103.54,77.37-69.41,0-110.37-34.14-117.2-96.34Z"/>
    <path class="cls-1" d="M1022.59,1634.36h50.45v265.5h-50.45v-265.5Z"/>
    <path class="cls-1" d="M1295.67,1857.37c-17.83,30.34-46.27,46.65-83.06,46.65-67.51,0-113.4-48.55-113.4-136.92s48.93-137.68,122.13-137.68c64.1,0,109.23,37.17,119.47,103.16h-50.82c-7.59-40.96-34.52-62.96-68.65-62.96-43.24,0-70.55,33.38-70.55,97.47s27.69,97.1,70.55,97.1c36.41,0,63.34-23.89,71.3-69.03h-69.03v-39.07h117.96v143.75h-45.89v-42.48Z"/>
    <path class="cls-1" d="M1371.88,1634.36h58.03l57.27,98.23,56.89,97.86-.76-98.23-.38-97.85h44.38v265.5h-58.41l-57.27-97.47-56.51-97.1.76,97.1.38,97.47h-44.38v-265.5Z"/>
  </g>
</svg>